<?xml version="1.0" standalone="no"?>
<!DOCTYPE svg PUBLIC "-//W3C//DTD SVG 20010904//EN"
 "http://www.w3.org/TR/2001/REC-SVG-20010904/DTD/svg10.dtd">
<svg version="1.0" xmlns="http://www.w3.org/2000/svg"
 width="500.000000pt" height="500.000000pt" viewBox="0 0 500.000000 500.000000"
 preserveAspectRatio="xMidYMid meet">

<g transform="translate(0.000000,500.000000) scale(0.100000,-0.100000)"
fill="#000000" stroke="none">
<path d="M0 2500 l0 -2500 2500 0 2500 0 0 2500 0 2500 -2500 0 -2500 0 0
-2500z m2327 1384 c-3 -3 -12 -4 -19 -1 -8 3 -5 6 6 6 11 1 17 -2 13 -5z m291
-1 c-10 -2 -28 -2 -40 0 -13 2 -5 4 17 4 22 1 32 -1 23 -4z m-375 -10 c-7 -2
-19 -2 -25 0 -7 3 -2 5 12 5 14 0 19 -2 13 -5z m450 0 c-7 -2 -19 -2 -25 0 -7
3 -2 5 12 5 14 0 19 -2 13 -5z m54 -9 c-3 -3 -12 -4 -19 -1 -8 3 -5 6 6 6 11
1 17 -2 13 -5z m46 -11 c-7 -2 -19 -2 -25 0 -7 3 -2 5 12 5 14 0 19 -2 13 -5z
m62 -13 c13 -5 14 -9 5 -9 -8 0 -24 4 -35 9 -13 5 -14 9 -5 9 8 0 24 -4 35 -9z
m65 -20 c18 -12 2 -12 -25 0 -13 6 -15 9 -5 9 8 0 22 -4 30 -9z m80 -30 c8 -5
11 -10 5 -10 -5 0 -17 5 -25 10 -8 5 -10 10 -5 10 6 0 17 -5 25 -10z m118 -54
c48 -24 96 -51 107 -60 11 -9 -29 10 -90 41 -115 59 -123 63 -111 63 3 0 46
-20 94 -44z m-734 -22 c25 -9 19 -23 -8 -21 -37 3 -36 -16 2 -25 26 -7 33 -13
30 -30 -2 -11 -10 -25 -19 -31 -21 -13 -69 -1 -69 18 0 18 12 19 27 4 13 -13
47 -4 39 10 -3 4 -19 11 -36 14 -24 5 -30 12 -30 31 0 31 28 44 64 30z m206
-25 c0 -10 2 -19 4 -19 2 0 11 -3 20 -6 11 -4 16 0 16 14 0 21 17 39 26 29 11
-10 -8 -118 -20 -114 -6 2 -10 13 -8 24 4 31 -35 38 -42 7 -10 -40 -29 -29
-22 14 3 20 6 47 6 60 0 13 4 20 10 17 6 -3 10 -15 10 -26z m-430 -51 c6 -24
13 -49 15 -55 2 -7 -2 -13 -9 -13 -12 0 -36 67 -36 99 0 28 20 6 30 -31z
m1180 -44 c0 -3 -13 4 -30 16 -16 12 -30 24 -30 26 0 3 14 -4 30 -16 17 -12
30 -24 30 -26z m-1374 11 c-16 -12 -16 -15 1 -49 11 -25 14 -39 6 -47 -7 -7
-15 4 -27 34 -14 36 -21 44 -36 40 -35 -9 -21 14 18 29 41 16 65 12 38 -7z
m-346 11 c0 -2 -8 -10 -17 -17 -16 -13 -17 -12 -4 4 13 16 21 21 21 13z m1455
-56 c-3 -5 -12 -7 -20 -4 -9 4 -21 -9 -35 -36 -11 -22 -25 -38 -30 -35 -6 4
-1 23 11 47 19 37 19 42 5 50 -9 5 -14 13 -11 19 4 5 24 0 46 -11 22 -12 37
-25 34 -30z m296 13 c13 -16 12 -17 -3 -4 -10 7 -18 15 -18 17 0 8 8 3 21 -13z
m-1801 4 c0 -2 -10 -12 -22 -23 l-23 -19 19 23 c18 21 26 27 26 19z m1920
-112 c52 -52 92 -95 90 -95 -3 0 -48 43 -100 95 -52 52 -92 95 -90 95 3 0 48
-43 100 -95z m-2000 42 c0 -2 -10 -12 -22 -23 l-23 -19 19 23 c18 21 26 27 26
19z m275 -44 c41 -25 56 -52 25 -45 -24 5 -50 -10 -50 -29 0 -38 -19 -18 -29
31 -18 83 -16 85 54 43z m1465 6 c0 -6 -12 -27 -27 -47 -15 -20 -28 -39 -29
-41 -2 -1 -7 0 -13 3 -6 4 2 25 21 51 31 44 48 56 48 34z m-1800 -32 c0 -2
-12 -14 -27 -28 l-28 -24 24 28 c23 25 31 32 31 24z m1963 -93 c3 -4 -3 -24
-14 -46 l-20 -39 41 21 c35 18 41 19 46 5 5 -13 -4 -29 -52 -94 -1 -1 -8 0
-14 4 -7 4 -3 15 10 32 26 33 19 41 -16 18 -35 -23 -54 -6 -30 29 22 35 20 41
-9 22 -54 -36 -62 -10 -7 27 38 27 54 32 65 21z m-1838 -14 c3 -6 -5 -14 -19
-20 -14 -5 -26 -14 -26 -20 0 -13 6 -13 40 5 26 13 30 13 44 -1 9 -8 16 -20
16 -25 0 -16 -41 -50 -56 -47 -19 4 -14 23 6 23 8 0 16 9 18 19 3 15 0 17 -14
11 -11 -4 -30 -8 -44 -9 -34 -1 -40 36 -8 58 26 19 35 20 43 6z m-275 -90 c-6
-11 -13 -20 -16 -20 -2 0 0 9 6 20 6 11 13 20 16 20 2 0 0 -9 -6 -20z m-89
-167 c-12 -20 -14 -14 -5 12 4 9 9 14 11 11 3 -2 0 -13 -6 -23z m2374 -42
c-20 -28 -39 -51 -42 -51 -2 0 -3 10 -2 23 3 33 -11 57 -32 57 -10 0 -19 4
-19 9 0 11 112 29 124 20 5 -4 -8 -30 -29 -58z m-1057 -31 c45 -11 115 -42
145 -64 16 -13 16 -15 0 -55 l-18 -42 -47 54 c-61 71 -122 101 -203 101 -92
-1 -168 -52 -168 -114 0 -54 51 -93 158 -119 115 -28 124 -31 119 -45 -3 -8 2
-30 10 -51 15 -35 15 -37 -2 -30 -9 3 -68 19 -131 36 -172 44 -231 86 -231
166 0 122 187 204 368 163z m-1362 -46 c-8 -21 -15 -34 -15 -28 -1 15 20 76
25 71 2 -2 -2 -21 -10 -43z m-37 -145 c-46 -204 -19 -476 64 -670 l35 -79 -31
-15 c-39 -19 -40 -18 -71 115 -54 224 -55 461 -5 664 10 43 19 81 19 84 0 3 2
3 5 0 3 -2 -5 -47 -16 -99z m2589 69 c-2 -6 -20 -17 -39 -23 -24 -8 -34 -18
-34 -33 -1 -34 -11 -35 -25 -2 -15 35 -17 32 35 52 49 20 68 22 63 6z m179
-60 c-3 -8 -6 -5 -6 6 -1 11 2 17 5 13 3 -3 4 -12 1 -19z m10 -40 c-3 -8 -6
-5 -6 6 -1 11 2 17 5 13 3 -3 4 -12 1 -19z m10 -40 c-3 -8 -6 -5 -6 6 -1 11 2
17 5 13 3 -3 4 -12 1 -19z m-1310 -45 c23 -15 50 -41 60 -60 l17 -32 95 -3 94
-3 12 -42 c7 -23 15 -54 19 -70 l7 -28 -21 31 c-11 18 -38 43 -60 58 -42 27
-126 53 -138 41 -4 -3 -9 -136 -10 -295 -4 -304 -2 -323 41 -340 15 -6 -15 -9
-88 -9 -73 0 -103 3 -88 9 34 14 43 68 43 259 0 161 -1 173 -17 166 -116 -44
-285 -22 -379 50 -34 26 -34 26 -33 108 l0 82 20 -51 c26 -69 92 -141 154
-170 64 -30 152 -32 213 -4 37 17 42 23 43 52 0 18 3 27 6 21 6 -17 33 -16 33
1 0 11 -43 132 -85 239 -10 25 14 22 62 -10z m1320 5 c-3 -8 -6 -5 -6 6 -1 11
2 17 5 13 3 -3 4 -12 1 -19z m-142 -52 c13 -19 14 -29 5 -45 -15 -28 -21 -26
-18 5 2 15 -3 29 -9 31 -8 3 -13 -4 -13 -15 0 -33 -11 -52 -30 -52 -25 0 -42
24 -38 56 4 39 29 44 26 5 -4 -39 16 -45 20 -6 6 49 33 58 57 21z m152 -13
c-3 -10 -5 -4 -5 12 0 17 2 24 5 18 2 -7 2 -21 0 -30z m10 -75 c-2 -13 -4 -5
-4 17 -1 22 1 32 4 23 2 -10 2 -28 0 -40z m-1417 30 c-14 -6 -42 -17 -63 -26
-21 -8 -53 -33 -72 -54 -19 -21 -35 -36 -35 -33 0 3 7 32 17 65 l16 60 81 -1
c66 0 76 -2 56 -11z m1427 -225 c-2 -32 -3 -8 -3 52 0 61 1 87 3 58 2 -29 2
-78 0 -110z m-139 45 c-3 -8 -27 -14 -61 -16 -46 -2 -57 0 -57 13 0 12 13 15
61 15 44 0 60 -3 57 -12z m129 -185 c-3 -10 -5 -4 -5 12 0 17 2 24 5 18 2 -7
2 -21 0 -30z m-148 1 c19 -6 -3 -30 -35 -38 -30 -8 -22 -26 12 -26 13 0 24 -4
24 -10 0 -11 -28 -13 -82 -4 -21 4 -38 11 -38 16 0 5 17 16 38 25 l37 16 -32
9 c-51 14 -41 30 15 23 26 -4 53 -8 61 -11z m138 -66 c-3 -8 -6 -5 -6 6 -1 11
2 17 5 13 3 -3 4 -12 1 -19z m-245 -185 c54 -53 50 -63 -22 -63 -33 0 -60 4
-60 10 0 6 6 10 14 10 18 0 27 26 20 56 -9 33 4 30 48 -13z m-2357 -174 c-3
-3 9 -25 25 -48 17 -22 30 -47 30 -54 0 -14 36 -52 49 -52 3 0 5 -3 4 -7 -1
-3 4 -12 12 -18 8 -7 15 -9 15 -5 0 5 9 0 20 -10 11 -10 17 -21 15 -26 -3 -4
-1 -10 5 -14 5 -3 10 -11 10 -18 0 -6 -17 5 -37 24 l-37 34 32 -38 c18 -21 30
-43 26 -49 -3 -5 10 -27 31 -48 24 -25 35 -43 30 -52 -5 -7 6 0 23 16 17 16
29 33 26 37 -2 4 1 11 7 15 8 5 9 3 4 -6 -6 -9 -4 -12 7 -8 8 4 15 1 15 -7 0
-7 -5 -12 -11 -11 -6 1 -11 -3 -11 -9 0 -5 5 -9 12 -9 7 1 11 -3 10 -8 -1 -6
4 -13 12 -16 9 -3 11 0 6 8 -6 9 -3 9 14 0 12 -6 19 -15 16 -20 -3 -5 25 -25
62 -44 37 -19 64 -35 60 -36 -4 0 -25 9 -47 20 -45 23 -54 25 -44 9 4 -8 0 -7
-15 1 -12 6 -19 16 -15 21 3 6 -2 9 -12 7 -11 -2 -18 2 -16 10 2 14 -14 16
-23 3 -3 -5 -1 -12 5 -16 6 -4 8 -11 4 -16 -3 -6 2 -9 12 -7 11 2 19 -3 19
-11 0 -8 6 -16 14 -19 9 -3 11 0 6 9 -5 8 -4 11 1 6 5 -5 9 -14 9 -19 0 -6 6
-13 14 -16 9 -3 11 0 6 8 -4 7 5 5 24 -4 17 -9 31 -19 31 -22 0 -2 -9 0 -21 6
-11 7 -23 9 -26 7 -3 -3 9 -13 26 -22 17 -8 31 -18 31 -21 0 -3 -16 3 -36 15
-41 24 -48 26 -38 9 4 -8 3 -10 -2 -5 -5 5 -9 14 -9 19 0 6 -6 13 -14 16 -9 3
-11 0 -5 -9 7 -12 5 -12 -9 0 -9 7 -14 18 -10 24 4 6 0 8 -9 4 -17 -6 -53 25
-41 36 6 6 -10 11 -28 9 -10 -2 -159 156 -206 219 -52 67 -143 219 -143 237 0
7 10 17 23 22 18 7 26 3 44 -18 12 -14 20 -29 18 -33z m115 -91 c0 -6 -7 -5
-15 2 -8 7 -15 17 -15 22 0 6 7 5 15 -2 8 -7 15 -17 15 -22z m277 -104 c-3 -3
-12 -4 -19 -1 -8 3 -5 6 6 6 11 1 17 -2 13 -5z m96 -11 c-7 -2 -21 -2 -30 0
-10 3 -4 5 12 5 17 0 24 -2 18 -5z m100 -10 c-7 -2 -19 -2 -25 0 -7 3 -2 5 12
5 14 0 19 -2 13 -5z m-369 -12 c3 -5 -2 -15 -12 -22 -15 -12 -16 -12 -5 2 7 9
10 19 6 22 -3 4 -4 7 0 7 3 0 8 -4 11 -9z m453 3 c-3 -3 -12 -4 -19 -1 -8 3
-5 6 6 6 11 1 17 -2 13 -5z m60 -10 c-3 -3 -12 -4 -19 -1 -8 3 -5 6 6 6 11 1
17 -2 13 -5z m-144 -11 c-7 -2 -19 -2 -25 0 -7 3 -2 5 12 5 14 0 19 -2 13 -5z
m184 1 c-3 -3 -12 -4 -19 -1 -8 3 -5 6 6 6 11 1 17 -2 13 -5z m-120 -10 c-3
-3 -12 -4 -19 -1 -8 3 -5 6 6 6 11 1 17 -2 13 -5z m-130 -10 c-3 -3 -12 -4
-19 -1 -8 3 -5 6 6 6 11 1 17 -2 13 -5z m190 0 c-3 -3 -12 -4 -19 -1 -8 3 -5
6 6 6 11 1 17 -2 13 -5z m-471 -16 c4 4 2 -1 -5 -11 -12 -16 -12 -20 4 -35 16
-14 17 -14 7 -1 -10 13 -9 19 3 29 8 7 12 17 8 23 -3 6 -1 7 6 3 6 -4 8 -13 4
-19 -4 -7 -8 -19 -8 -27 -1 -39 -17 -42 -51 -9 -31 30 -47 58 -25 44 5 -3 13
-1 16 5 5 8 11 8 19 1 7 -6 17 -7 22 -3z m341 6 c-3 -3 -12 -4 -19 -1 -8 3 -5
6 6 6 11 1 17 -2 13 -5z m-100 -10 c-3 -3 -12 -4 -19 -1 -8 3 -5 6 6 6 11 1
17 -2 13 -5z m160 0 c-3 -3 -12 -4 -19 -1 -8 3 -5 6 6 6 11 1 17 -2 13 -5z
m-170 -50 c-3 -3 -12 -4 -19 -1 -8 3 -5 6 6 6 11 1 17 -2 13 -5z m110 0 c-3
-3 -12 -4 -19 -1 -8 3 -5 6 6 6 11 1 17 -2 13 -5z m478 -14 c10 -11 16 -20 13
-20 -3 0 -13 9 -23 20 -10 11 -16 20 -13 20 3 0 13 -9 23 -20z m-615 -80 c8
-5 11 -10 5 -10 -5 0 -17 5 -25 10 -8 5 -10 10 -5 10 6 0 17 -5 25 -10z m29
-66 c14 -12 -19 -1 -35 12 -18 14 -18 14 6 3 14 -6 27 -13 29 -15z m121 -24
c8 -5 11 -10 5 -10 -5 0 -17 5 -25 10 -8 5 -10 10 -5 10 6 0 17 -5 25 -10z
m80 -30 c8 -5 11 -10 5 -10 -5 0 -17 5 -25 10 -8 5 -10 10 -5 10 6 0 17 -5 25
-10z m-120 -45 c0 -3 -18 4 -40 15 -22 11 -40 23 -40 25 0 3 18 -4 40 -15 22
-11 40 -23 40 -25z m1425 19 c-82 -62 -373 -178 -447 -178 -62 -1 -65 19 -6
35 30 8 28 8 -14 5 -40 -3 -45 -1 -33 10 7 8 23 14 35 14 12 0 18 5 15 10 -4
6 26 10 83 10 108 0 220 27 312 74 72 38 85 43 55 20z m-1375 -39 c14 -8 21
-14 15 -14 -5 0 -21 6 -35 14 -14 8 -20 14 -15 14 6 0 21 -6 35 -14z m893
-152 c-7 -2 -19 -2 -25 0 -7 3 -2 5 12 5 14 0 19 -2 13 -5z"/>
<path d="M1727 3439 c4 -13 9 -17 15 -11 11 11 3 32 -12 32 -4 0 -6 -9 -3 -21z"/>
<path d="M3532 3059 c2 -6 8 -10 13 -10 5 0 11 4 13 10 2 6 -4 11 -13 11 -9 0
-15 -5 -13 -11z"/>
<path d="M3645 1950 c-9 -15 -1 -23 21 -18 15 3 16 4 1 16 -11 9 -17 10 -22 2z"/>
<path d="M1370 1664 c0 -5 9 -20 20 -34 18 -24 19 -24 14 -3 -6 22 -34 53 -34
37z"/>
<path d="M1450 1606 c0 -2 8 -10 18 -17 15 -13 16 -12 3 4 -13 16 -21 21 -21
13z"/>
<path d="M1566 1421 c-15 -16 -15 -19 -1 -31 8 -7 15 -9 15 -6 0 4 9 2 20 -4
11 -6 18 -15 15 -19 -2 -5 3 -15 13 -22 15 -13 16 -12 3 4 -7 9 -10 17 -6 17
4 0 3 6 -4 13 -7 9 -7 17 0 24 7 7 2 15 -14 26 -23 15 -26 15 -41 -2z m30 -15
c2 -12 -4 -13 -35 -7 -2 1 2 8 9 16 14 16 23 13 26 -9z"/>
<path d="M1516 1511 c-4 -5 -2 -12 3 -15 5 -4 12 -2 15 3 4 5 2 12 -3 15 -5 4
-12 2 -15 -3z"/>
</g>
</svg>
